<svg id="Layer_1" data-name="Layer 1" xmlns="http://www.w3.org/2000/svg" viewBox="0 0 316.02 430.86"><defs><style>.cls-1{fill:#ac2924;}.cls-2{fill:#992322;}</style></defs><title>5s3 icon</title><path class="cls-1" d="M333.75,387.84,122.27,353.32l44-269.64,211.48,34.51ZM132,346.35l194.83,31.8,41.3-253L173.25,93.36Z" transform="translate(-92 -34.14)"/><path class="cls-1" d="M282.21,406.35,92,307.67,217.82,65.16,408,163.83ZM103.38,304.07,278.61,395,396.66,167.44,221.42,76.53Z" transform="translate(-92 -34.14)"/><path class="cls-2" d="M125.35,90.72l7.43-56.58h52.86V47.69h-41l-3.47,26.44h2.18A61.74,61.74,0,0,1,167.79,79,58.58,58.58,0,0,1,187.2,92a65.82,65.82,0,0,1,13,19.88,59.77,59.77,0,0,1,5.13,24,62,62,0,0,1-62,62,55.83,55.83,0,0,1-25.35-5.68L124,180.5a47.33,47.33,0,0,0,19.23,3.94q21.18,0,34.84-14.61t13.65-33.78a46,46,0,0,0-14.53-34.33q-14.53-14.06-34-14A55.09,55.09,0,0,0,125.35,90.72Z" transform="translate(-92 -34.14)"/><path class="cls-2" d="M292.8,241.36l-24.59,2.87L266.43,229,291,226.12a23.85,23.85,0,0,0,16.94-9.7,24.83,24.83,0,0,0,5.22-18.31,25.8,25.8,0,0,0-2.56-9.17l-48.68-79.81a36.08,36.08,0,0,1-4.68-14.41,34.94,34.94,0,0,1,7.41-26.29,34,34,0,0,1,23.84-13.5l18.2-2.12,1.78,15.25L290.4,70.17a20,20,0,0,0-13.48,7.5A19.58,19.58,0,0,0,272.52,93a20.64,20.64,0,0,0,2.38,7.88l48,79.1a37.78,37.78,0,0,1,5.56,16.31,41,41,0,0,1-35.62,45.05Z" transform="translate(-92 -34.14)"/><path class="cls-2" d="M178.41,446.13a50.1,50.1,0,0,0,25.47,5.48A49,49,0,0,0,250.06,400,47.51,47.51,0,0,0,242.17,376a49.15,49.15,0,0,0-18.87-16.8,47.57,47.57,0,0,0-24.79-5.31l-12.22.68,27.65-40.68-33.48,1.84-.73-13.29,59.39-3.27-28.43,42.21a62.56,62.56,0,0,1,44.72,30.86,61.81,61.81,0,0,1,1.29,58.54,62,62,0,0,1-21.36,24.08,60.73,60.73,0,0,1-30.73,10.08,60.07,60.07,0,0,1-31.78-6.85Z" transform="translate(-92 -34.14)"/></svg>